<svg id="Capa_1" enable-background="new 0 0 524.235 524.235" height="512" viewBox="0 0 524.235 524.235" width="512" xmlns="http://www.w3.org/2000/svg"><path d="m507.613 102.549c-10.271-5.823-22.862-5.663-33.005.416l-82.424 49.451c-5.407-30.717-32.285-54.123-64.538-54.123h-136.69l320.49 320.49c7.877-6.147 12.789-15.434 12.789-25.607v-262.118c0-11.807-6.351-22.701-16.622-28.509z"/><path d="m0 46.331 53.209 53.209c-30.255 5.789-53.209 32.362-53.209 64.283v196.588c0 36.14 29.389 65.529 65.529 65.529h262.118c14.619 0 27.797-5.159 38.652-13.311l111.605 111.605 46.331-46.331-477.902-477.902-46.332 46.331z"/></svg>