<?xml version="1.0" encoding="iso-8859-1"?>
<!-- Generator: Adobe Illustrator 18.0.0, SVG Export Plug-In . SVG Version: 6.00 Build 0)  -->
<!DOCTYPE svg PUBLIC "-//W3C//DTD SVG 1.1//EN" "http://www.w3.org/Graphics/SVG/1.1/DTD/svg11.dtd">
<svg version="1.1" id="Capa_1" xmlns="http://www.w3.org/2000/svg" xmlns:xlink="http://www.w3.org/1999/xlink" x="0px" y="0px"
	 viewBox="0 0 297 297" style="enable-background:new 0 0 297 297;" xml:space="preserve">
<g>
	<path fill="#fff" d="M176.178,175.311H65.463c-5.581,0-10.102,4.523-10.102,10.102c0,5.578,4.521,10.103,10.102,10.103h110.715
		c5.581,0,10.103-4.524,10.103-10.103C186.28,179.834,181.759,175.311,176.178,175.311z"/>
	<path fill="#fff" d="M292.806,121.852c-2.637-1.896-6.021-2.414-9.103-1.389l-42.175,14.062c-0.943-12.177-7.996-22.858-18.465-28.601
		c0.073-1.178,0.125-2.362,0.125-3.558c0-31.011-25.229-56.24-56.236-56.24c-16.826,0-31.938,7.438-42.253,19.188
		C114.222,43.09,91.613,27.67,65.463,27.67C29.365,27.67,0,57.038,0,93.137c0,9.086,1.862,17.742,5.224,25.615
		C1.827,124.319,0,130.714,0,137.318v96.188c0,19.754,16.069,35.823,35.825,35.823h169.992c18.811,0,34.274-14.58,35.704-33.033
		l42.181,14.063c1.045,0.349,2.123,0.52,3.194,0.52c2.094,0,4.167-0.65,5.909-1.907c2.635-1.898,4.194-4.948,4.194-8.195v-110.73
		C297,126.799,295.44,123.749,292.806,121.852z M166.952,66.329c19.867,0,36.032,16.165,36.032,36.037
		c0,19.868-16.165,36.033-36.032,36.033c-19.868,0-36.032-16.165-36.032-36.033C130.92,82.494,147.084,66.329,166.952,66.329z
		 M65.463,47.874c24.953,0,45.255,20.305,45.255,45.263s-20.302,45.263-45.255,45.263c-24.955,0-45.258-20.305-45.258-45.263
		S40.508,47.874,65.463,47.874z M221.436,233.507c0,8.614-7.009,15.621-15.619,15.621H35.825c-8.613,0-15.62-7.007-15.62-15.621
		V140.37c11.765,11.28,27.709,18.234,45.258,18.234c21.913,0,41.333-10.837,53.22-27.424c9.833,16.412,27.786,27.424,48.27,27.424
		c22.166,0,41.373-12.898,50.528-31.577c2.463,2.799,3.956,6.439,3.956,10.291V233.507z M276.795,226.762l-35.155-11.723v-59.257
		l35.155-11.718V226.762z"/>
</g>
<g>
</g>
<g>
</g>
<g>
</g>
<g>
</g>
<g>
</g>
<g>
</g>
<g>
</g>
<g>
</g>
<g>
</g>
<g>
</g>
<g>
</g>
<g>
</g>
<g>
</g>
<g>
</g>
<g>
</g>
</svg>
